<svg width="11" height="20" viewBox="0 0 11 20" fill="none" xmlns="http://www.w3.org/2000/svg">
<path d="M1.78992 17.4945C0.902539 16.1681 0.478241 14.5814 0.583977 12.9848V6.46795C0.472038 4.85958 0.889922 3.25895 1.77269 1.91483C2.5709 0.877922 3.93477 0.362366 5.86427 0.368159C7.79377 0.373952 9.10021 0.828685 9.78358 1.73236C10.6168 2.85221 11.0234 4.23682 10.9292 5.63379V7.16309H7.36308V5.50346C7.35827 5.06678 7.32084 4.63108 7.2511 4.20008C7.20799 3.88807 7.06596 3.59849 6.84625 3.37461C6.71061 3.25728 6.55315 3.16841 6.38306 3.11321C6.21297 3.05801 6.03367 3.03757 5.85565 3.05311C5.6 3.01462 5.3388 3.05654 5.10761 3.17315C4.87641 3.28976 4.68645 3.47539 4.56357 3.7048C4.33709 4.31502 4.2374 4.9657 4.27071 5.61642V13.8885C4.23141 14.5435 4.34653 15.1986 4.60665 15.8001C4.73093 16.0171 4.91535 16.1927 5.13724 16.3054C5.35914 16.4181 5.60884 16.463 5.85565 16.4344C6.09818 16.469 6.34535 16.4255 6.5619 16.31C6.77846 16.1946 6.95333 16.0131 7.06159 15.7914C7.26996 15.1801 7.36059 14.5342 7.32862 13.8885V12.1507H10.8948V13.6539C10.9997 15.0715 10.6263 16.4832 9.83526 17.6596C9.07724 18.6154 7.76793 19.0846 5.90734 19.0846C4.04675 19.0846 2.59101 18.5633 1.78992 17.4945Z" fill="#111111"/>
</svg>
