<svg width="10" height="19" viewBox="0 0 10 19" fill="none" xmlns="http://www.w3.org/2000/svg">
<path d="M0.575806 0.620143H4.21085C5.64336 0.503862 7.06994 0.907537 8.23351 1.75842C9.09489 2.51438 9.51696 3.74824 9.51696 5.46001C9.51696 7.77712 8.7733 9.19345 7.28598 9.70901L9.87013 18.8413H7.42381L5.055 10.2912H3.09965V18.8413H0.575806V0.620143ZM4.02134 8.44039C4.85117 8.52138 5.68097 8.28577 6.34708 7.78002C6.61778 7.45685 6.82008 7.08124 6.94155 6.67629C7.06302 6.27133 7.10108 5.8456 7.0534 5.42525C7.07071 4.83574 6.98619 4.24769 6.80361 3.68742C6.72955 3.48083 6.61515 3.29133 6.4672 3.13014C6.31924 2.96895 6.14073 2.83934 5.94222 2.74899C5.38303 2.51756 4.78002 2.41371 4.17638 2.44487H3.0652V8.47515L4.02134 8.44039Z" fill="#444444"/>
</svg>
