<svg width="11" height="20" viewBox="0 0 11 20" fill="none" xmlns="http://www.w3.org/2000/svg">
<path d="M1.91142 17.4945C1.08806 16.0926 0.706542 14.4714 0.817454 12.8458V6.76338C0.787768 5.58961 0.932951 4.418 1.24815 3.28772C1.49694 2.43796 2.02566 1.69925 2.74696 1.19363C3.61781 0.664235 4.62586 0.410019 5.64122 0.463736C6.29801 0.40073 6.96052 0.48317 7.58243 0.705295C8.20435 0.92742 8.77066 1.28387 9.24181 1.74973C10.0683 2.91759 10.4588 4.34258 10.3444 5.77282V6.45057H7.97559V5.88578C7.99172 5.21025 7.93977 4.53482 7.82053 3.86989C7.74207 3.44375 7.50859 3.06256 7.16588 2.80112C6.71872 2.53492 6.20242 2.41078 5.6843 2.44487C5.12163 2.39631 4.56236 2.57086 4.12519 2.93146C3.76795 3.27339 3.53445 3.72611 3.46192 4.21746C3.3528 4.93321 3.30382 5.65698 3.31548 6.38106V13.1499C3.24709 14.1785 3.42125 15.2088 3.8237 16.1564C4.05743 16.4478 4.35412 16.6814 4.69108 16.8395C5.02804 16.9975 5.39635 17.0757 5.76788 17.0682C6.1394 17.0606 6.50429 16.9675 6.83467 16.7959C7.16505 16.6243 7.45218 16.3788 7.6741 16.0782C8.08921 15.076 8.26904 13.9905 8.19954 12.9066V11.6206H5.90825V9.82197H10.4736V18.8413H8.9145L8.66469 16.7472C8.46726 17.4429 8.04234 18.0508 7.459 18.472C6.87566 18.8933 6.16822 19.103 5.45172 19.0672C4.77805 19.1272 4.10029 19.0144 3.48137 18.7395C2.86244 18.4645 2.32241 18.0363 1.91142 17.4945Z" fill="#444444"/>
</svg>
